<svg id="Capa_1" enable-background="new 0 0 511.295 511.295" height="512" viewBox="0 0 511.295 511.295" width="512" xmlns="http://www.w3.org/2000/svg"><g><path d="m316.342 425.768c0-.293-.021-.581-.054-.866 1.6-4.255 2.464-8.848 2.464-13.608v-3.452c0-6.811-5.541-12.352-12.351-12.352h-9.514c1.2-2.877 1.866-6.031 1.866-9.338s-.666-6.461-1.866-9.338h3.25c13.724 0 24.888-11.165 24.888-24.889 0-7.888-3.693-14.926-9.436-19.489.481-1.419.753-2.933.753-4.513v-1.416c0-36.114-29.382-65.496-65.497-65.496h-67.929v-18.63l42.763-24.102c2.312-1.304 3.763-3.731 3.816-6.384s-1.3-5.138-3.558-6.531l-46.58-28.766c-2.314-1.431-5.221-1.495-7.594-.169-2.375 1.324-3.847 3.831-3.847 6.55v78.031h-51.171v-13.13l34.92-18.605c2.397-1.277 3.917-3.752 3.972-6.468s-1.363-5.25-3.708-6.623l-38.894-22.784c-2.32-1.359-5.189-1.372-7.521-.035s-3.771 3.819-3.771 6.507v61.139h-3.758c-36.115 0-65.497 29.382-65.497 65.496 0 0 .092 3.161.248 4-7.315 4.339-12.231 12.313-12.231 21.417 0 13.724 11.165 24.889 24.888 24.889h3.25c-1.2 2.877-1.866 6.031-1.866 9.338s.666 6.461 1.866 9.338h-9.514c-6.811 0-12.351 5.541-12.351 12.352v3.452c0 7.357 2.061 14.317 5.722 20.246-.002.076-.011.15-.011.228v20.643c0 32.469 26.415 58.884 58.884 58.884h166.084c32.469 0 58.884-26.415 58.884-58.884v-26.642zm-133.425-229.341 24.329 15.024-24.329 13.712zm-66.171 16.533 16.026 9.388-16.026 8.539zm167.008 173.193c0 5.148-4.189 9.338-9.338 9.338h-45.314c-5.149 0-9.338-4.189-9.338-9.338s4.189-9.338 9.338-9.338h45.314c5.149 0 9.338 4.19 9.338 9.338zm-133.645-9.338h45.314c5.149 0 9.338 4.189 9.338 9.338s-4.189 9.338-9.338 9.338h-45.314c-5.149 0-9.338-4.189-9.338-9.338s4.189-9.338 9.338-9.338zm37.469 33.676-31.052 34.701-38.947-34.701zm-152.07-58.564c0-5.452 4.436-9.889 9.888-9.889h1.208 193.042c4.142 0 7.5-3.357 7.5-7.5s-3.358-7.5-7.5-7.5h-192.155v-.529c0-27.844 22.653-50.496 50.497-50.496h152.858c27.844 0 50.497 22.652 50.497 50.496v.529h-1.205-28.529c-4.142 0-7.5 3.357-7.5 7.5s3.358 7.5 7.5 7.5h28.529c5.452 0 9.888 4.437 9.888 9.889s-4.436 9.889-9.888 9.889h-254.742c-5.452-.001-9.888-4.437-9.888-9.889zm26.272 34.226c0-5.148 4.189-9.338 9.338-9.338h45.314c5.149 0 9.338 4.189 9.338 9.338s-4.189 9.338-9.338 9.338h-45.314c-5.149 0-9.338-4.189-9.338-9.338zm195.679 110.142h-166.084c-24.198 0-43.884-19.687-43.884-43.884v-6.98c1.92.995 3.941 1.844 6.058 2.52 3.843 1.228 7.796 1.837 11.736 1.837 5.736 0 11.443-1.292 16.729-3.849l7-3.385c.58-.28 1.231-.556 1.992-.841 3.878-1.455 5.842-5.778 4.387-9.656-1.456-3.879-5.78-5.844-9.657-4.387-1.191.446-2.253.897-3.25 1.379l-7.001 3.386c-5.44 2.631-11.61 3.069-17.37 1.227-9.77-3.122-16.334-12.11-16.334-22.367v-.804h53.251l53.94 48.061c2.233 1.991 5.025 2.971 7.808 2.971 3.229 0 6.444-1.319 8.758-3.906l42.169-47.125h96.047v.804c0 10.257-6.564 19.245-16.333 22.367-5.758 1.842-11.929 1.404-17.37-1.227l-7.002-3.386c-10.368-5.014-22.317-5.135-32.785-.338l-7.722 3.539c-3.712 1.701-7.835 2.4-11.927 2.028-4.126-.392-7.775 2.659-8.153 6.784s2.66 7.775 6.785 8.153c6.695.612 13.455-.538 19.545-3.329l7.722-3.539c6.388-2.93 13.68-2.853 20.005.205l7.001 3.386c8.92 4.313 19.028 5.027 28.466 2.012 3.37-1.077 6.504-2.585 9.357-4.443v8.903c-.001 24.197-19.687 43.884-43.884 43.884z"/><path d="m476.428 124.593h-5.373l-8.9-26.588c-1.679-5.014-6.359-8.383-11.647-8.383h-70.158v-29.746l24.873-24.873c2.057-2.056 3.19-4.789 3.19-7.697s-1.133-5.642-3.188-7.694l-16.431-16.434c-4.243-4.239-11.145-4.237-15.389.002l-31.464 31.465c-4.25 4.249-6.591 9.899-6.591 15.911v39.065h-70.159c-5.288 0-9.968 3.369-11.647 8.383l-8.901 26.588h-5.372c-7.918 0-14.359 6.441-14.359 14.359v21.252c0 7.395 5.62 13.499 12.813 14.273l2.388 64.314c.15 4.045 3.476 7.222 7.49 7.222.094 0 .188-.002.283-.005 4.139-.154 7.37-3.634 7.216-7.773l-2.364-63.671h157.019c4.142 0 7.5-3.357 7.5-7.5s-3.358-7.5-7.5-7.5h-169.844v-19.971h10.13 215.615 10.129v19.971h-34.067c-4.142 0-7.5 3.357-7.5 7.5s3.358 7.5 7.5 7.5h21.241l-10.39 279.567h-114.266c-4.142 0-7.5 3.357-7.5 7.5s3.358 7.5 7.5 7.5h113.708l-.849 22.847c-.087 2.42-2.054 4.316-4.477 4.316h-126.173c-4.142 0-7.5 3.357-7.5 7.5s3.358 7.5 7.5 7.5h126.174c10.535 0 19.085-8.246 19.466-18.767l11.82-318.05c7.193-.774 12.813-6.878 12.813-14.273v-21.252c0-7.917-6.441-14.358-14.359-14.358zm-126.078-74.037c0-2.004.78-3.887 2.197-5.304l28.554-28.554 10.606 10.606-24.16 24.161c-1.407 1.406-2.197 3.313-2.197 5.303v32.853h-15zm-89.887 74.037 6.685-19.971h75.703 30 75.702l6.685 19.971z"/><path d="m377.796 405.913c4.142 0 7.5-3.357 7.5-7.5s-3.358-7.5-7.5-7.5h-20.869c-7.406 0-13.432 6.025-13.432 13.432v19.99c0 7.407 6.025 13.433 13.432 13.433h68.422c7.406 0 13.432-6.025 13.432-13.433v-19.99c0-7.406-6.025-13.432-13.432-13.432h-15.591c-4.142 0-7.5 3.357-7.5 7.5s3.358 7.5 7.5 7.5h14.022v16.854h-65.285v-16.854z"/></g></svg>